ISO-10303-21;
HEADER;
/* Generated by software containing ST-Developer
 * from STEP Tools, Inc. (www.steptools.com) 
 */
/* OPTION: using custom schema-name function */

FILE_DESCRIPTION(
/* description */ (''),
/* implementation_level */ '2;1');

FILE_NAME(
/* name */ 'wigley_extended_above_wl_improved_res',
/* time_stamp */ '2026-03-06T15:21:14+01:00',
/* author */ (''),
/* organization */ (''),
/* preprocessor_version */ 'ST-DEVELOPER v16.5',
/* originating_system */ 'Rhino 7.38',
/* authorisation */ '');

FILE_SCHEMA (('AUTOMOTIVE_DESIGN'));
ENDSEC;

DATA;
#10=SHAPE_REPRESENTATION_RELATIONSHIP('','',#78,#22);
#11=COLOUR_RGB('',1.,0.,0.);
#12=FILL_AREA_STYLE_COLOUR('',#11);
#13=FILL_AREA_STYLE('',(#12));
#14=SURFACE_STYLE_FILL_AREA(#13);
#15=SURFACE_SIDE_STYLE('',(#14));
#16=SURFACE_STYLE_USAGE(.BOTH.,#15);
#17=MECHANICAL_DESIGN_GEOMETRIC_PRESENTATION_REPRESENTATION('',(#19),#77);
#18=PRESENTATION_STYLE_ASSIGNMENT((#16));
#19=STYLED_ITEM('',(#18),#21);
#20=PRESENTATION_LAYER_ASSIGNMENT('Layer 01','',(#21));
#21=SHELL_BASED_SURFACE_MODEL('shell_1',(#23));
#22=MANIFOLD_SURFACE_SHAPE_REPRESENTATION('shell_rep_0',(#21,#80),#77);
#23=OPEN_SHELL('',(#24));
#24=ADVANCED_FACE('',(#25),#59,.T.);
#25=FACE_OUTER_BOUND('',#26,.T.);
#26=EDGE_LOOP('',(#27,#28,#29,#30));
#27=ORIENTED_EDGE('',*,*,#43,.T.);
#28=ORIENTED_EDGE('',*,*,#44,.T.);
#29=ORIENTED_EDGE('',*,*,#45,.T.);
#30=ORIENTED_EDGE('',*,*,#46,.T.);
#31=PCURVE('',#59,#35);
#32=PCURVE('',#59,#36);
#33=PCURVE('',#59,#37);
#34=PCURVE('',#59,#38);
#35=DEFINITIONAL_REPRESENTATION('',(#48),#901);
#36=DEFINITIONAL_REPRESENTATION('',(#50),#901);
#37=DEFINITIONAL_REPRESENTATION('',(#52),#901);
#38=DEFINITIONAL_REPRESENTATION('',(#54),#901);
#39=SURFACE_CURVE('',#47,(#31),.PCURVE_S1.);
#40=SURFACE_CURVE('',#49,(#32),.PCURVE_S1.);
#41=SURFACE_CURVE('',#51,(#33),.PCURVE_S1.);
#42=SURFACE_CURVE('',#53,(#34),.PCURVE_S1.);
#43=EDGE_CURVE('',#57,#55,#39,.T.);
#44=EDGE_CURVE('',#55,#56,#40,.T.);
#45=EDGE_CURVE('',#56,#58,#41,.T.);
#46=EDGE_CURVE('',#58,#57,#42,.T.);
#47=B_SPLINE_CURVE_WITH_KNOTS('',3,(#780,#781,#782,#783,#784,#785,#786,
#787,#788,#789,#790,#791,#792,#793,#794,#795,#796,#797,#798,#799,#800,#801,
#802,#803,#804),.UNSPECIFIED.,.F.,.F.,(4,1,3,1,1,1,1,1,1,1,1,1,1,1,1,1,
1,1,1,1,4),(-0.02,-0.00999999999999999,0.,0.00245016829239136,0.00490033658478273,
0.00980067316956545,0.0147010097543482,0.0196013463391309,0.0245016829239137,
0.0294020195086964,0.0343023560934791,0.0392026926782618,0.0441030292630446,
0.0490033658478273,0.05390370243261,0.0588040390173928,0.0637043756021755,
0.0686047121869582,0.073505048771741,0.0784053853565237,0.0833057219413064),
 .UNSPECIFIED.);
#48=B_SPLINE_CURVE_WITH_KNOTS('',1,(#805,#806,#807),.UNSPECIFIED.,.F.,.F.,
(2,1,2),(-0.02,0.,0.0833057219413064),.UNSPECIFIED.);
#49=B_SPLINE_CURVE_WITH_KNOTS('',3,(#808,#809,#810,#811,#812,#813,#814,
#815,#816,#817,#818,#819,#820,#821,#822,#823,#824,#825,#826,#827,#828,#829,
#830,#831,#832,#833,#834,#835,#836,#837),.UNSPECIFIED.,.F.,.F.,(4,1,1,1,
1,1,1,1,1,1,1,1,1,1,1,1,1,1,1,1,1,1,1,1,1,1,1,4),(0.,0.0372822019992649,
0.0745644039985298,0.111846605997795,0.14912880799706,0.186411009996325,
0.223693211995589,0.260975413994854,0.298257615994119,0.335539817993384,
0.372822019992649,0.410104221991914,0.447386423991179,0.484668625990444,
0.521950827989709,0.559233029988974,0.596515231988239,0.633797433987503,
0.671079635986768,0.708361837986033,0.745644039985298,0.782926241984563,
0.820208443983828,0.857490645983093,0.894772847982358,0.932055049981623,
0.969337251980888,1.00661945398015),.UNSPECIFIED.);
#50=B_SPLINE_CURVE_WITH_KNOTS('',1,(#838,#839),.UNSPECIFIED.,.F.,.F.,(2,
2),(0.,1.00661945398015),.UNSPECIFIED.);
#51=B_SPLINE_CURVE_WITH_KNOTS('',3,(#840,#841,#842,#843,#844,#845,#846,
#847,#848,#849,#850,#851,#852,#853,#854,#855,#856,#857,#858,#859,#860,#861,
#862,#863,#864),.UNSPECIFIED.,.F.,.F.,(4,1,1,1,1,1,1,1,1,1,1,1,1,1,1,1,
1,1,3,1,4),(0.,0.00490033658478273,0.00980067316956546,0.0147010097543482,
0.0196013463391309,0.0245016829239137,0.0294020195086964,0.0343023560934791,
0.0392026926782618,0.0441030292630446,0.0490033658478273,0.05390370243261,
0.0588040390173928,0.0637043756021755,0.0686047121869582,0.073505048771741,
0.0784053853565237,0.080855553648915,0.0833057219413064,0.0933057219413064,
0.103305721941306),.UNSPECIFIED.);
#52=B_SPLINE_CURVE_WITH_KNOTS('',1,(#865,#866,#867),.UNSPECIFIED.,.F.,.F.,
(2,1,2),(0.,0.0833057219413064,0.103305721941306),.UNSPECIFIED.);
#53=B_SPLINE_CURVE_WITH_KNOTS('',3,(#868,#869,#870,#871,#872,#873,#874,
#875,#876,#877,#878,#879,#880,#881,#882,#883,#884,#885,#886,#887,#888,#889,
#890,#891,#892,#893,#894,#895,#896,#897),.UNSPECIFIED.,.F.,.F.,(4,1,1,1,
1,1,1,1,1,1,1,1,1,1,1,1,1,1,1,1,1,1,1,1,1,1,1,4),(-1.00661945398015,-0.969337251980888,
-0.932055049981623,-0.894772847982358,-0.857490645983093,-0.820208443983828,
-0.782926241984563,-0.745644039985298,-0.708361837986033,-0.671079635986768,
-0.633797433987503,-0.596515231988239,-0.559233029988974,-0.521950827989709,
-0.484668625990444,-0.447386423991179,-0.410104221991914,-0.372822019992649,
-0.335539817993384,-0.298257615994119,-0.260975413994854,-0.223693211995589,
-0.186411009996325,-0.14912880799706,-0.111846605997795,-0.0745644039985298,
-0.0372822019992649,0.),.UNSPECIFIED.);
#54=B_SPLINE_CURVE_WITH_KNOTS('',1,(#898,#899),.UNSPECIFIED.,.F.,.F.,(2,
2),(-1.00661945398015,0.),.UNSPECIFIED.);
#55=VERTEX_POINT('',#776);
#56=VERTEX_POINT('',#777);
#57=VERTEX_POINT('',#778);
#58=VERTEX_POINT('',#779);
#59=B_SPLINE_SURFACE_WITH_KNOTS('',3,3,((#86,#87,#88,#89,#90,#91,#92,#93,
#94,#95,#96,#97,#98,#99,#100,#101,#102,#103,#104,#105,#106,#107,#108),(#109,
#110,#111,#112,#113,#114,#115,#116,#117,#118,#119,#120,#121,#122,#123,#124,
#125,#126,#127,#128,#129,#130,#131),(#132,#133,#134,#135,#136,#137,#138,
#139,#140,#141,#142,#143,#144,#145,#146,#147,#148,#149,#150,#151,#152,#153,
#154),(#155,#156,#157,#158,#159,#160,#161,#162,#163,#164,#165,#166,#167,
#168,#169,#170,#171,#172,#173,#174,#175,#176,#177),(#178,#179,#180,#181,
#182,#183,#184,#185,#186,#187,#188,#189,#190,#191,#192,#193,#194,#195,#196,
#197,#198,#199,#200),(#201,#202,#203,#204,#205,#206,#207,#208,#209,#210,
#211,#212,#213,#214,#215,#216,#217,#218,#219,#220,#221,#222,#223),(#224,
#225,#226,#227,#228,#229,#230,#231,#232,#233,#234,#235,#236,#237,#238,#239,
#240,#241,#242,#243,#244,#245,#246),(#247,#248,#249,#250,#251,#252,#253,
#254,#255,#256,#257,#258,#259,#260,#261,#262,#263,#264,#265,#266,#267,#268,
#269),(#270,#271,#272,#273,#274,#275,#276,#277,#278,#279,#280,#281,#282,
#283,#284,#285,#286,#287,#288,#289,#290,#291,#292),(#293,#294,#295,#296,
#297,#298,#299,#300,#301,#302,#303,#304,#305,#306,#307,#308,#309,#310,#311,
#312,#313,#314,#315),(#316,#317,#318,#319,#320,#321,#322,#323,#324,#325,
#326,#327,#328,#329,#330,#331,#332,#333,#334,#335,#336,#337,#338),(#339,
#340,#341,#342,#343,#344,#345,#346,#347,#348,#349,#350,#351,#352,#353,#354,
#355,#356,#357,#358,#359,#360,#361),(#362,#363,#364,#365,#366,#367,#368,
#369,#370,#371,#372,#373,#374,#375,#376,#377,#378,#379,#380,#381,#382,#383,
#384),(#385,#386,#387,#388,#389,#390,#391,#392,#393,#394,#395,#396,#397,
#398,#399,#400,#401,#402,#403,#404,#405,#406,#407),(#408,#409,#410,#411,
#412,#413,#414,#415,#416,#417,#418,#419,#420,#421,#422,#423,#424,#425,#426,
#427,#428,#429,#430),(#431,#432,#433,#434,#435,#436,#437,#438,#439,#440,
#441,#442,#443,#444,#445,#446,#447,#448,#449,#450,#451,#452,#453),(#454,
#455,#456,#457,#458,#459,#460,#461,#462,#463,#464,#465,#466,#467,#468,#469,
#470,#471,#472,#473,#474,#475,#476),(#477,#478,#479,#480,#481,#482,#483,
#484,#485,#486,#487,#488,#489,#490,#491,#492,#493,#494,#495,#496,#497,#498,
#499),(#500,#501,#502,#503,#504,#505,#506,#507,#508,#509,#510,#511,#512,
#513,#514,#515,#516,#517,#518,#519,#520,#521,#522),(#523,#524,#525,#526,
#527,#528,#529,#530,#531,#532,#533,#534,#535,#536,#537,#538,#539,#540,#541,
#542,#543,#544,#545),(#546,#547,#548,#549,#550,#551,#552,#553,#554,#555,
#556,#557,#558,#559,#560,#561,#562,#563,#564,#565,#566,#567,#568),(#569,
#570,#571,#572,#573,#574,#575,#576,#577,#578,#579,#580,#581,#582,#583,#584,
#585,#586,#587,#588,#589,#590,#591),(#592,#593,#594,#595,#596,#597,#598,
#599,#600,#601,#602,#603,#604,#605,#606,#607,#608,#609,#610,#611,#612,#613,
#614),(#615,#616,#617,#618,#619,#620,#621,#622,#623,#624,#625,#626,#627,
#628,#629,#630,#631,#632,#633,#634,#635,#636,#637),(#638,#639,#640,#641,
#642,#643,#644,#645,#646,#647,#648,#649,#650,#651,#652,#653,#654,#655,#656,
#657,#658,#659,#660),(#661,#662,#663,#664,#665,#666,#667,#668,#669,#670,
#671,#672,#673,#674,#675,#676,#677,#678,#679,#680,#681,#682,#683),(#684,
#685,#686,#687,#688,#689,#690,#691,#692,#693,#694,#695,#696,#697,#698,#699,
#700,#701,#702,#703,#704,#705,#706),(#707,#708,#709,#710,#711,#712,#713,
#714,#715,#716,#717,#718,#719,#720,#721,#722,#723,#724,#725,#726,#727,#728,
#729),(#730,#731,#732,#733,#734,#735,#736,#737,#738,#739,#740,#741,#742,
#743,#744,#745,#746,#747,#748,#749,#750,#751,#752),(#753,#754,#755,#756,
#757,#758,#759,#760,#761,#762,#763,#764,#765,#766,#767,#768,#769,#770,#771,
#772,#773,#774,#775)),.UNSPECIFIED.,.F.,.F.,.F.,(4,1,1,1,1,1,1,1,1,1,1,
1,1,1,1,1,1,1,1,1,1,1,1,1,1,1,1,4),(4,1,1,1,1,1,1,1,1,1,1,1,1,1,1,1,1,1,
1,1,4),(0.,0.0372822019992649,0.0745644039985298,0.111846605997795,0.14912880799706,
0.186411009996325,0.223693211995589,0.260975413994854,0.298257615994119,
0.335539817993384,0.372822019992649,0.410104221991914,0.447386423991179,
0.484668625990444,0.521950827989709,0.559233029988974,0.596515231988239,
0.633797433987503,0.671079635986768,0.708361837986033,0.745644039985298,
0.782926241984563,0.820208443983828,0.857490645983093,0.894772847982358,
0.932055049981623,0.969337251980888,1.00661945398015),(0.,0.00490033658478273,
0.00980067316956546,0.0147010097543482,0.0196013463391309,0.0245016829239137,
0.0294020195086964,0.0343023560934791,0.0392026926782618,0.0441030292630446,
0.0490033658478273,0.05390370243261,0.0588040390173928,0.0637043756021755,
0.0686047121869582,0.073505048771741,0.0784053853565237,0.080855553648915,
0.0833057219413064,0.0933057219413064,0.103305721941306),.UNSPECIFIED.);
#60=SHAPE_DEFINITION_REPRESENTATION(#61,#78);
#61=PRODUCT_DEFINITION_SHAPE('Document','',#63);
#62=PRODUCT_DEFINITION_CONTEXT('3D Mechanical Parts',#67,'design');
#63=PRODUCT_DEFINITION('A','First version',#64,#62);
#64=PRODUCT_DEFINITION_FORMATION_WITH_SPECIFIED_SOURCE('A',
'First version',#69,.MADE.);
#65=PRODUCT_RELATED_PRODUCT_CATEGORY('tool','tool',(#69));
#66=APPLICATION_PROTOCOL_DEFINITION('Draft International Standard',
'automotive_design',1999,#67);
#67=APPLICATION_CONTEXT(
'data for automotive mechanical design processes');
#68=PRODUCT_CONTEXT('3D Mechanical Parts',#67,'mechanical');
#69=PRODUCT('Document','Document','',(#68));
#70=(
LENGTH_UNIT()
NAMED_UNIT(*)
SI_UNIT(.MILLI.,.METRE.)
);
#71=(
NAMED_UNIT(*)
PLANE_ANGLE_UNIT()
SI_UNIT($,.RADIAN.)
);
#72=DIMENSIONAL_EXPONENTS(0.,0.,0.,0.,0.,0.,0.);
#73=PLANE_ANGLE_MEASURE_WITH_UNIT(PLANE_ANGLE_MEASURE(0.01745329252),#71);
#74=(
CONVERSION_BASED_UNIT('DEGREES',#73)
NAMED_UNIT(#72)
PLANE_ANGLE_UNIT()
);
#75=(
NAMED_UNIT(*)
SI_UNIT($,.STERADIAN.)
SOLID_ANGLE_UNIT()
);
#76=UNCERTAINTY_MEASURE_WITH_UNIT(LENGTH_MEASURE(0.001),#70,
'DISTANCE_ACCURACY_VALUE',
'Maximum model space distance between geometric entities at asserted c
onnectivities');
#77=(
GEOMETRIC_REPRESENTATION_CONTEXT(3)
GLOBAL_UNCERTAINTY_ASSIGNED_CONTEXT((#76))
GLOBAL_UNIT_ASSIGNED_CONTEXT((#75,#74,#70))
REPRESENTATION_CONTEXT('ID1','3D')
);
#78=SHAPE_REPRESENTATION('Document',(#79,#80),#77);
#79=AXIS2_PLACEMENT_3D('',#85,#81,#82);
#80=AXIS2_PLACEMENT_3D('',#900,#83,#84);
#81=DIRECTION('',(0.,0.,1.));
#82=DIRECTION('',(1.,0.,0.));
#83=DIRECTION('',(0.,0.,1.));
#84=DIRECTION('',(1.,0.,0.));
#85=CARTESIAN_POINT('',(0.,0.,0.));
#86=CARTESIAN_POINT('',(-0.5,0.,-0.0625));
#87=CARTESIAN_POINT('',(-0.5,0.,-0.0592105263157895));
#88=CARTESIAN_POINT('',(-0.5,0.,-0.0559210526315789));
#89=CARTESIAN_POINT('',(-0.5,0.,-0.0526315789473684));
#90=CARTESIAN_POINT('',(-0.5,0.,-0.0493421052631579));
#91=CARTESIAN_POINT('',(-0.5,0.,-0.0460526315789474));
#92=CARTESIAN_POINT('',(-0.5,0.,-0.0427631578947368));
#93=CARTESIAN_POINT('',(-0.5,0.,-0.0394736842105263));
#94=CARTESIAN_POINT('',(-0.5,0.,-0.0361842105263158));
#95=CARTESIAN_POINT('',(-0.5,0.,-0.0328947368421053));
#96=CARTESIAN_POINT('',(-0.5,0.,-0.0296052631578947));
#97=CARTESIAN_POINT('',(-0.5,0.,-0.0263157894736842));
#98=CARTESIAN_POINT('',(-0.5,0.,-0.0230263157894737));
#99=CARTESIAN_POINT('',(-0.5,0.,-0.0197368421052632));
#100=CARTESIAN_POINT('',(-0.5,0.,-0.0164473684210526));
#101=CARTESIAN_POINT('',(-0.5,0.,-0.0131578947368421));
#102=CARTESIAN_POINT('',(-0.5,0.,-0.00986842105263158));
#103=CARTESIAN_POINT('',(-0.5,0.,-0.00657894736842105));
#104=CARTESIAN_POINT('',(-0.5,0.,-0.00328947368421053));
#105=CARTESIAN_POINT('',(-0.5,0.,0.));
#106=CARTESIAN_POINT('',(-0.5,0.,0.00666666666666667));
#107=CARTESIAN_POINT('',(-0.5,0.,0.0133333333333333));
#108=CARTESIAN_POINT('',(-0.5,0.,0.02));
#109=CARTESIAN_POINT('',(-0.46551724137931,0.,-0.0625));
#110=CARTESIAN_POINT('',(-0.46551724137931,0.000682474695406141,-0.0592105263157895));
#111=CARTESIAN_POINT('',(-0.46551724137931,0.00132805886673628,-0.0559210526315789));
#112=CARTESIAN_POINT('',(-0.46551724137931,0.0019367525139904,-0.0526315789473684));
#113=CARTESIAN_POINT('',(-0.46551724137931,0.00250855563716852,-0.0493421052631579));
#114=CARTESIAN_POINT('',(-0.46551724137931,0.00304346823627063,-0.0460526315789474));
#115=CARTESIAN_POINT('',(-0.46551724137931,0.00354149031129674,-0.0427631578947368));
#116=CARTESIAN_POINT('',(-0.46551724137931,0.00400262186224683,-0.0394736842105263));
#117=CARTESIAN_POINT('',(-0.46551724137931,0.00442686288912092,-0.0361842105263158));
#118=CARTESIAN_POINT('',(-0.46551724137931,0.004814213391919,-0.0328947368421053));
#119=CARTESIAN_POINT('',(-0.46551724137931,0.00516467337064107,-0.0296052631578947));
#120=CARTESIAN_POINT('',(-0.46551724137931,0.00547824282528714,-0.0263157894736842));
#121=CARTESIAN_POINT('',(-0.46551724137931,0.00575492175585719,-0.0230263157894737));
#122=CARTESIAN_POINT('',(-0.46551724137931,0.00599471016235124,-0.0197368421052632));
#123=CARTESIAN_POINT('',(-0.46551724137931,0.00619760804476929,-0.0164473684210526));
#124=CARTESIAN_POINT('',(-0.46551724137931,0.00636361540311132,-0.0131578947368421));
#125=CARTESIAN_POINT('',(-0.46551724137931,0.00649273223737735,-0.00986842105263158));
#126=CARTESIAN_POINT('',(-0.46551724137931,0.00658495854756737,-0.00657894736842105));
#127=CARTESIAN_POINT('',(-0.46551724137931,0.00664029433368138,-0.00328947368421053));
#128=CARTESIAN_POINT('',(-0.46551724137931,0.00665873959571938,0.));
#129=CARTESIAN_POINT('',(-0.46551724137931,0.00665873959571938,0.00666666666666667));
#130=CARTESIAN_POINT('',(-0.465517241379311,0.00665873959571939,0.0133333333333333));
#131=CARTESIAN_POINT('',(-0.46551724137931,0.00665873959571938,0.02));
#132=CARTESIAN_POINT('',(-0.431034482758621,0.,-0.0625));
#133=CARTESIAN_POINT('',(-0.431034482758621,0.00131620119828327,-0.0592105263157895));
#134=CARTESIAN_POINT('',(-0.431034482758621,0.00256125638584853,-0.0559210526315789));
#135=CARTESIAN_POINT('',(-0.431034482758621,0.00373516556269578,-0.0526315789473684));
#136=CARTESIAN_POINT('',(-0.431034482758621,0.00483792872882501,-0.0493421052631579));
#137=CARTESIAN_POINT('',(-0.431034482758621,0.00586954588423622,-0.0460526315789474));
#138=CARTESIAN_POINT('',(-0.431034482758621,0.00683001702892942,-0.0427631578947368));
#139=CARTESIAN_POINT('',(-0.431034482758621,0.00771934216290461,-0.0394736842105263));
#140=CARTESIAN_POINT('',(-0.431034482758621,0.00853752128616178,-0.0361842105263158));
#141=CARTESIAN_POINT('',(-0.431034482758621,0.00928455439870093,-0.0328947368421053));
#142=CARTESIAN_POINT('',(-0.431034482758621,0.00996044150052207,-0.0296052631578947));
#143=CARTESIAN_POINT('',(-0.431034482758621,0.0105651825916252,-0.0263157894736842));
#144=CARTESIAN_POINT('',(-0.431034482758621,0.0110987776720103,-0.0230263157894737));
#145=CARTESIAN_POINT('',(-0.431034482758621,0.0115612267416774,-0.0197368421052632));
#146=CARTESIAN_POINT('',(-0.431034482758621,0.0119525298006265,-0.0164473684210526));
#147=CARTESIAN_POINT('',(-0.431034482758621,0.0122726868488576,-0.0131578947368421));
#148=CARTESIAN_POINT('',(-0.431034482758621,0.0125216978863706,-0.00986842105263158));
#149=CARTESIAN_POINT('',(-0.431034482758621,0.0126995629131656,-0.00657894736842105));
#150=CARTESIAN_POINT('',(-0.431034482758621,0.0128062819292427,-0.00328947368421053));
#151=CARTESIAN_POINT('',(-0.431034482758621,0.0128418549346017,0.));
#152=CARTESIAN_POINT('',(-0.431034482758621,0.0128418549346017,0.00666666666666667));
#153=CARTESIAN_POINT('',(-0.431034482758621,0.0128418549346017,0.0133333333333333));
#154=CARTESIAN_POINT('',(-0.431034482758621,0.0128418549346017,0.02));
#155=CARTESIAN_POINT('',(-0.396551724137931,0.,-0.0625));
#156=CARTESIAN_POINT('',(-0.396551724137931,0.00190117950863139,-0.0592105263157895));
#157=CARTESIAN_POINT('',(-0.396551724137931,0.00369959255733677,-0.0559210526315789));
#158=CARTESIAN_POINT('',(-0.396551724137931,0.00539523914611612,-0.0526315789473684));
#159=CARTESIAN_POINT('',(-0.396551724137931,0.00698811927496945,-0.0493421052631579));
#160=CARTESIAN_POINT('',(-0.396551724137931,0.00847823294389675,-0.0460526315789474));
#161=CARTESIAN_POINT('',(-0.396551724137931,0.00986558015289805,-0.0427631578947368));
#162=CARTESIAN_POINT('',(-0.396551724137931,0.0111501609019733,-0.0394736842105263));
#163=CARTESIAN_POINT('',(-0.396551724137931,0.0123319751911226,-0.0361842105263158));
#164=CARTESIAN_POINT('',(-0.396551724137931,0.0134110230203458,-0.0328947368421053));
#165=CARTESIAN_POINT('',(-0.396551724137931,0.014387304389643,-0.0296052631578947));
#166=CARTESIAN_POINT('',(-0.396551724137931,0.0152608192990142,-0.0263157894736842));
#167=CARTESIAN_POINT('',(-0.396551724137931,0.0160315677484593,-0.0230263157894737));
#168=CARTESIAN_POINT('',(-0.396551724137931,0.0166995497379785,-0.0197368421052632));
#169=CARTESIAN_POINT('',(-0.396551724137931,0.0172647652675716,-0.0164473684210526));
#170=CARTESIAN_POINT('',(-0.396551724137931,0.0177272143372387,-0.0131578947368421));
#171=CARTESIAN_POINT('',(-0.396551724137931,0.0180868969469797,-0.00986842105263158));
#172=CARTESIAN_POINT('',(-0.396551724137931,0.0183438130967948,-0.00657894736842105));
#173=CARTESIAN_POINT('',(-0.396551724137931,0.0184979627866838,-0.00328947368421053));
#174=CARTESIAN_POINT('',(-0.396551724137931,0.0185493460166468,0.));
#175=CARTESIAN_POINT('',(-0.396551724137931,0.0185493460166468,0.00666666666666667));
#176=CARTESIAN_POINT('',(-0.396551724137931,0.0185493460166468,0.0133333333333333));
#177=CARTESIAN_POINT('',(-0.396551724137931,0.0185493460166468,0.02));
#178=CARTESIAN_POINT('',(-0.362068965517241,0.,-0.0625));
#179=CARTESIAN_POINT('',(-0.362068965517241,0.0024374096264505,-0.0592105263157895));
#180=CARTESIAN_POINT('',(-0.362068965517241,0.00474306738120098,-0.0559210526315789));
#181=CARTESIAN_POINT('',(-0.362068965517241,0.00691697326425144,-0.0526315789473684));
#182=CARTESIAN_POINT('',(-0.362068965517241,0.00895912727560186,-0.0493421052631579));
#183=CARTESIAN_POINT('',(-0.362068965517241,0.0108695294152523,-0.0460526315789474));
#184=CARTESIAN_POINT('',(-0.362068965517241,0.0126481796832026,-0.0427631578947368));
#185=CARTESIAN_POINT('',(-0.362068965517241,0.014295078079453,-0.0394736842105263));
#186=CARTESIAN_POINT('',(-0.362068965517241,0.0158102246040033,-0.0361842105263158));
#187=CARTESIAN_POINT('',(-0.362068965517241,0.0171936192568536,-0.0328947368421053));
#188=CARTESIAN_POINT('',(-0.362068965517241,0.0184452620380038,-0.0296052631578947));
#189=CARTESIAN_POINT('',(-0.362068965517241,0.0195651529474541,-0.0263157894736842));
#190=CARTESIAN_POINT('',(-0.362068965517241,0.0205532919852043,-0.0230263157894737));
#191=CARTESIAN_POINT('',(-0.362068965517241,0.0214096791512544,-0.0197368421052632));
#192=CARTESIAN_POINT('',(-0.362068965517241,0.0221343144456046,-0.0164473684210526));
#193=CARTESIAN_POINT('',(-0.362068965517241,0.0227271978682547,-0.0131578947368421));
#194=CARTESIAN_POINT('',(-0.362068965517241,0.0231883294192048,-0.00986842105263158));
#195=CARTESIAN_POINT('',(-0.362068965517241,0.0235177090984549,-0.00657894736842105));
#196=CARTESIAN_POINT('',(-0.362068965517241,0.0237153369060049,-0.00328947368421053));
#197=CARTESIAN_POINT('',(-0.362068965517241,0.0237812128418549,0.));
#198=CARTESIAN_POINT('',(-0.362068965517241,0.0237812128418549,0.00666666666666667));
#199=CARTESIAN_POINT('',(-0.362068965517241,0.0237812128418549,0.0133333333333333));
#200=CARTESIAN_POINT('',(-0.362068965517241,0.0237812128418549,0.02));
#201=CARTESIAN_POINT('',(-0.327586206896552,0.,-0.0625));
#202=CARTESIAN_POINT('',(-0.327586206896552,0.0029248915517406,-0.0592105263157895));
#203=CARTESIAN_POINT('',(-0.327586206896552,0.00569168085744118,-0.0559210526315789));
#204=CARTESIAN_POINT('',(-0.327586206896552,0.00830036791710173,-0.0526315789473684));
#205=CARTESIAN_POINT('',(-0.327586206896552,0.0107509527307222,-0.0493421052631579));
#206=CARTESIAN_POINT('',(-0.327586206896552,0.0130434352983027,-0.0460526315789474));
#207=CARTESIAN_POINT('',(-0.327586206896552,0.0151778156198432,-0.0427631578947368));
#208=CARTESIAN_POINT('',(-0.327586206896552,0.0171540936953436,-0.0394736842105263));
#209=CARTESIAN_POINT('',(-0.327586206896552,0.0189722695248039,-0.0361842105263158));
#210=CARTESIAN_POINT('',(-0.327586206896552,0.0206323431082243,-0.0328947368421053));
#211=CARTESIAN_POINT('',(-0.327586206896552,0.0221343144456046,-0.0296052631578947));
#212=CARTESIAN_POINT('',(-0.327586206896552,0.0234781835369449,-0.0263157894736842));
#213=CARTESIAN_POINT('',(-0.327586206896552,0.0246639503822451,-0.0230263157894737));
#214=CARTESIAN_POINT('',(-0.327586206896552,0.0256916149815053,-0.0197368421052632));
#215=CARTESIAN_POINT('',(-0.327586206896552,0.0265611773347255,-0.0164473684210526));
#216=CARTESIAN_POINT('',(-0.327586206896552,0.0272726374419057,-0.0131578947368421));
#217=CARTESIAN_POINT('',(-0.327586206896552,0.0278259953030458,-0.00986842105263158));
#218=CARTESIAN_POINT('',(-0.327586206896552,0.0282212509181459,-0.00657894736842105));
#219=CARTESIAN_POINT('',(-0.327586206896552,0.0284584042872059,-0.00328947368421053));
#220=CARTESIAN_POINT('',(-0.327586206896552,0.0285374554102259,0.));
#221=CARTESIAN_POINT('',(-0.327586206896552,0.0285374554102259,0.00666666666666667));
#222=CARTESIAN_POINT('',(-0.327586206896552,0.0285374554102259,0.0133333333333333));
#223=CARTESIAN_POINT('',(-0.327586206896552,0.0285374554102259,0.02));
#224=CARTESIAN_POINT('',(-0.293103448275862,0.,-0.0625));
#225=CARTESIAN_POINT('',(-0.293103448275862,0.00336362528450169,-0.0592105263157895));
#226=CARTESIAN_POINT('',(-0.293103448275862,0.00654543298605736,-0.0559210526315789));
#227=CARTESIAN_POINT('',(-0.293103448275862,0.00954542310466698,-0.0526315789473684));
#228=CARTESIAN_POINT('',(-0.293103448275862,0.0123635956403306,-0.0493421052631579));
#229=CARTESIAN_POINT('',(-0.293103448275862,0.0149999505930481,-0.0460526315789474));
#230=CARTESIAN_POINT('',(-0.293103448275862,0.0174544879628196,-0.0427631578947368));
#231=CARTESIAN_POINT('',(-0.293103448275862,0.0197272077496451,-0.0394736842105263));
#232=CARTESIAN_POINT('',(-0.293103448275862,0.0218181099535245,-0.0361842105263158));
#233=CARTESIAN_POINT('',(-0.293103448275862,0.0237271945744579,-0.0328947368421053));
#234=CARTESIAN_POINT('',(-0.293103448275862,0.0254544616124453,-0.0296052631578947));
#235=CARTESIAN_POINT('',(-0.293103448275862,0.0269999110674866,-0.0263157894736842));
#236=CARTESIAN_POINT('',(-0.293103448275862,0.0283635429395819,-0.0230263157894737));
#237=CARTESIAN_POINT('',(-0.293103448275862,0.0295453572287311,-0.0197368421052632));
#238=CARTESIAN_POINT('',(-0.293103448275862,0.0305453539349343,-0.0164473684210526));
#239=CARTESIAN_POINT('',(-0.293103448275862,0.0313635330581915,-0.0131578947368421));
#240=CARTESIAN_POINT('',(-0.293103448275862,0.0319998945985026,-0.00986842105263158));
#241=CARTESIAN_POINT('',(-0.293103448275862,0.0324544385558677,-0.00657894736842105));
#242=CARTESIAN_POINT('',(-0.293103448275862,0.0327271649302868,-0.00328947368421053));
#243=CARTESIAN_POINT('',(-0.293103448275862,0.0328180737217598,0.));
#244=CARTESIAN_POINT('',(-0.293103448275862,0.0328180737217598,0.00666666666666667));
#245=CARTESIAN_POINT('',(-0.293103448275862,0.0328180737217598,0.0133333333333333));
#246=CARTESIAN_POINT('',(-0.293103448275862,0.0328180737217598,0.02));
#247=CARTESIAN_POINT('',(-0.258620689655172,0.,-0.0625));
#248=CARTESIAN_POINT('',(-0.258620689655172,0.00375361082473378,-0.0592105263157895));
#249=CARTESIAN_POINT('',(-0.258620689655172,0.00730432376704952,-0.0559210526315789));
#250=CARTESIAN_POINT('',(-0.258620689655172,0.0106521388269472,-0.0526315789473684));
#251=CARTESIAN_POINT('',(-0.258620689655172,0.0137970560044269,-0.0493421052631579));
#252=CARTESIAN_POINT('',(-0.258620689655172,0.0167390752994885,-0.0460526315789474));
#253=CARTESIAN_POINT('',(-0.258620689655172,0.019478196712132,-0.0427631578947368));
#254=CARTESIAN_POINT('',(-0.258620689655172,0.0220144202423576,-0.0394736842105263));
#255=CARTESIAN_POINT('',(-0.258620689655172,0.0243477458901651,-0.0361842105263158));
#256=CARTESIAN_POINT('',(-0.258620689655172,0.0264781736555545,-0.0328947368421053));
#257=CARTESIAN_POINT('',(-0.258620689655172,0.0284057035385259,-0.0296052631578947));
#258=CARTESIAN_POINT('',(-0.258620689655172,0.0301303355390793,-0.0263157894736842));
#259=CARTESIAN_POINT('',(-0.258620689655172,0.0316520696572146,-0.0230263157894737));
#260=CARTESIAN_POINT('',(-0.258620689655172,0.0329709058929318,-0.0197368421052632));
#261=CARTESIAN_POINT('',(-0.258620689655172,0.0340868442462311,-0.0164473684210526));
#262=CARTESIAN_POINT('',(-0.258620689655172,0.0349998847171123,-0.0131578947368421));
#263=CARTESIAN_POINT('',(-0.258620689655172,0.0357100273055754,-0.00986842105263158));
#264=CARTESIAN_POINT('',(-0.258620689655172,0.0362172720116205,-0.00657894736842105));
#265=CARTESIAN_POINT('',(-0.258620689655172,0.0365216188352476,-0.00328947368421053));
#266=CARTESIAN_POINT('',(-0.258620689655172,0.0366230677764566,0.));
#267=CARTESIAN_POINT('',(-0.258620689655172,0.0366230677764566,0.00666666666666667));
#268=CARTESIAN_POINT('',(-0.258620689655172,0.0366230677764566,0.0133333333333333));
#269=CARTESIAN_POINT('',(-0.258620689655172,0.0366230677764566,0.02));
#270=CARTESIAN_POINT('',(-0.224137931034483,0.,-0.0625));
#271=CARTESIAN_POINT('',(-0.224137931034483,0.00409484817243685,-0.0592105263157895));
#272=CARTESIAN_POINT('',(-0.224137931034483,0.00796835320041765,-0.0559210526315789));
#273=CARTESIAN_POINT('',(-0.224137931034483,0.0116205150839424,-0.0526315789473684));
#274=CARTESIAN_POINT('',(-0.224137931034483,0.0150513338230111,-0.0493421052631579));
#275=CARTESIAN_POINT('',(-0.224137931034483,0.0182608094176238,-0.0460526315789474));
#276=CARTESIAN_POINT('',(-0.224137931034483,0.0212489418677804,-0.0427631578947368));
#277=CARTESIAN_POINT('',(-0.224137931034483,0.024015731173481,-0.0394736842105263));
#278=CARTESIAN_POINT('',(-0.224137931034483,0.0265611773347255,-0.0361842105263158));
#279=CARTESIAN_POINT('',(-0.224137931034483,0.028885280351514,-0.0328947368421053));
#280=CARTESIAN_POINT('',(-0.224137931034483,0.0309880402238464,-0.0296052631578947));
#281=CARTESIAN_POINT('',(-0.224137931034483,0.0328694569517228,-0.0263157894736842));
#282=CARTESIAN_POINT('',(-0.224137931034483,0.0345295305351432,-0.0230263157894737));
#283=CARTESIAN_POINT('',(-0.224137931034483,0.0359682609741075,-0.0197368421052632));
#284=CARTESIAN_POINT('',(-0.224137931034483,0.0371856482686157,-0.0164473684210526));
#285=CARTESIAN_POINT('',(-0.224137931034483,0.0381816924186679,-0.0131578947368421));
#286=CARTESIAN_POINT('',(-0.224137931034483,0.0389563934242641,-0.00986842105263158));
#287=CARTESIAN_POINT('',(-0.224137931034483,0.0395097512854042,-0.00657894736842105));
#288=CARTESIAN_POINT('',(-0.224137931034483,0.0398417660020883,-0.00328947368421053));
#289=CARTESIAN_POINT('',(-0.224137931034483,0.0399524375743163,0.));
#290=CARTESIAN_POINT('',(-0.224137931034483,0.0399524375743163,0.00666666666666667));
#291=CARTESIAN_POINT('',(-0.224137931034483,0.0399524375743163,0.0133333333333333));
#292=CARTESIAN_POINT('',(-0.224137931034483,0.0399524375743163,0.02));
#293=CARTESIAN_POINT('',(-0.189655172413793,0.,-0.0625));
#294=CARTESIAN_POINT('',(-0.189655172413793,0.00438733732761091,-0.0592105263157895));
#295=CARTESIAN_POINT('',(-0.189655172413793,0.00853752128616177,-0.0559210526315789));
#296=CARTESIAN_POINT('',(-0.189655172413793,0.0124505518756526,-0.0526315789473684));
#297=CARTESIAN_POINT('',(-0.189655172413793,0.0161264290960833,-0.0493421052631579));
#298=CARTESIAN_POINT('',(-0.189655172413793,0.0195651529474541,-0.0460526315789474));
#299=CARTESIAN_POINT('',(-0.189655172413793,0.0227667234297647,-0.0427631578947368));
#300=CARTESIAN_POINT('',(-0.189655172413793,0.0257311405430153,-0.0394736842105263));
#301=CARTESIAN_POINT('',(-0.189655172413793,0.0284584042872059,-0.0361842105263158));
#302=CARTESIAN_POINT('',(-0.189655172413793,0.0309485146623364,-0.0328947368421053));
#303=CARTESIAN_POINT('',(-0.189655172413793,0.0332014716684069,-0.0296052631578947));
#304=CARTESIAN_POINT('',(-0.189655172413793,0.0352172753054173,-0.0263157894736842));
#305=CARTESIAN_POINT('',(-0.189655172413793,0.0369959255733677,-0.0230263157894737));
#306=CARTESIAN_POINT('',(-0.189655172413793,0.038537422472258,-0.0197368421052632));
#307=CARTESIAN_POINT('',(-0.189655172413793,0.0398417660020883,-0.0164473684210526));
#308=CARTESIAN_POINT('',(-0.189655172413793,0.0409089561628585,-0.0131578947368421));
#309=CARTESIAN_POINT('',(-0.189655172413793,0.0417389929545687,-0.00986842105263158));
#310=CARTESIAN_POINT('',(-0.189655172413793,0.0423318763772188,-0.00657894736842105));
#311=CARTESIAN_POINT('',(-0.189655172413793,0.0426876064308089,-0.00328947368421053));
#312=CARTESIAN_POINT('',(-0.189655172413793,0.0428061831153389,0.));
#313=CARTESIAN_POINT('',(-0.189655172413793,0.0428061831153389,0.00666666666666667));
#314=CARTESIAN_POINT('',(-0.189655172413793,0.0428061831153389,0.0133333333333333));
#315=CARTESIAN_POINT('',(-0.189655172413793,0.0428061831153389,0.02));
#316=CARTESIAN_POINT('',(-0.155172413793103,0.,-0.0625));
#317=CARTESIAN_POINT('',(-0.155172413793103,0.00463107829025596,-0.0592105263157895));
#318=CARTESIAN_POINT('',(-0.155172413793103,0.00901182802428187,-0.0559210526315789));
#319=CARTESIAN_POINT('',(-0.155172413793103,0.0131422492020777,-0.0526315789473684));
#320=CARTESIAN_POINT('',(-0.155172413793103,0.0170223418236435,-0.0493421052631579));
#321=CARTESIAN_POINT('',(-0.155172413793103,0.0206521058889793,-0.0460526315789474));
#322=CARTESIAN_POINT('',(-0.155172413793103,0.024031541398085,-0.0427631578947368));
#323=CARTESIAN_POINT('',(-0.155172413793103,0.0271606483509606,-0.0394736842105263));
#324=CARTESIAN_POINT('',(-0.155172413793103,0.0300394267476062,-0.0361842105263158));
#325=CARTESIAN_POINT('',(-0.155172413793103,0.0326678765880218,-0.0328947368421053));
#326=CARTESIAN_POINT('',(-0.155172413793103,0.0350459978722073,-0.0296052631578947));
#327=CARTESIAN_POINT('',(-0.155172413793103,0.0371737906001627,-0.0263157894736842));
#328=CARTESIAN_POINT('',(-0.155172413793103,0.0390512547718881,-0.0230263157894737));
#329=CARTESIAN_POINT('',(-0.155172413793103,0.0406783903873834,-0.0197368421052632));
#330=CARTESIAN_POINT('',(-0.155172413793103,0.0420551974466487,-0.0164473684210526));
#331=CARTESIAN_POINT('',(-0.155172413793103,0.043181675949684,-0.0131578947368421));
#332=CARTESIAN_POINT('',(-0.155172413793103,0.0440578258964891,-0.00986842105263158));
#333=CARTESIAN_POINT('',(-0.155172413793103,0.0446836472870643,-0.00657894736842105));
#334=CARTESIAN_POINT('',(-0.155172413793103,0.0450591401214094,-0.00328947368421053));
#335=CARTESIAN_POINT('',(-0.155172413793103,0.0451843043995244,0.));
#336=CARTESIAN_POINT('',(-0.155172413793103,0.0451843043995244,0.00666666666666667));
#337=CARTESIAN_POINT('',(-0.155172413793103,0.0451843043995244,0.0133333333333333));
#338=CARTESIAN_POINT('',(-0.155172413793103,0.0451843043995244,0.02));
#339=CARTESIAN_POINT('',(-0.120689655172414,0.,-0.0625));
#340=CARTESIAN_POINT('',(-0.120689655172414,0.004826071060372,-0.0592105263157895));
#341=CARTESIAN_POINT('',(-0.120689655172414,0.00939127341477795,-0.0559210526315789));
#342=CARTESIAN_POINT('',(-0.120689655172414,0.0136956070632178,-0.0526315789473684));
#343=CARTESIAN_POINT('',(-0.120689655172414,0.0177390720056917,-0.0493421052631579));
#344=CARTESIAN_POINT('',(-0.120689655172414,0.0215216682421995,-0.0460526315789474));
#345=CARTESIAN_POINT('',(-0.120689655172414,0.0250433957727412,-0.0427631578947368));
#346=CARTESIAN_POINT('',(-0.120689655172414,0.0283042545973169,-0.0394736842105263));
#347=CARTESIAN_POINT('',(-0.120689655172414,0.0313042447159265,-0.0361842105263158));
#348=CARTESIAN_POINT('',(-0.120689655172414,0.0340433661285701,-0.0328947368421053));
#349=CARTESIAN_POINT('',(-0.120689655172414,0.0365216188352476,-0.0296052631578947));
#350=CARTESIAN_POINT('',(-0.120689655172414,0.038739002835959,-0.0263157894736842));
#351=CARTESIAN_POINT('',(-0.120689655172414,0.0406955181307044,-0.0230263157894737));
#352=CARTESIAN_POINT('',(-0.120689655172414,0.0423911647194838,-0.0197368421052632));
#353=CARTESIAN_POINT('',(-0.120689655172414,0.0438259426022971,-0.0164473684210526));
#354=CARTESIAN_POINT('',(-0.120689655172414,0.0449998517791443,-0.0131578947368421));
#355=CARTESIAN_POINT('',(-0.120689655172414,0.0459128922500255,-0.00986842105263158));
#356=CARTESIAN_POINT('',(-0.120689655172414,0.0465650640149407,-0.00657894736842105));
#357=CARTESIAN_POINT('',(-0.120689655172414,0.0469563670738897,-0.00328947368421053));
#358=CARTESIAN_POINT('',(-0.120689655172414,0.0470868014268728,0.));
#359=CARTESIAN_POINT('',(-0.120689655172414,0.0470868014268728,0.00666666666666667));
#360=CARTESIAN_POINT('',(-0.120689655172414,0.0470868014268728,0.0133333333333333));
#361=CARTESIAN_POINT('',(-0.120689655172414,0.0470868014268728,0.02));
#362=CARTESIAN_POINT('',(-0.0862068965517241,0.,-0.0625));
#363=CARTESIAN_POINT('',(-0.0862068965517241,0.00497231563795903,-0.0592105263157895));
#364=CARTESIAN_POINT('',(-0.0862068965517241,0.00967585745765001,-0.0559210526315789));
#365=CARTESIAN_POINT('',(-0.0862068965517241,0.0141106254590729,-0.0526315789473684));
#366=CARTESIAN_POINT('',(-0.0862068965517241,0.0182766196422278,-0.0493421052631579));
#367=CARTESIAN_POINT('',(-0.0862068965517241,0.0221738400071146,-0.0460526315789474));
#368=CARTESIAN_POINT('',(-0.0862068965517241,0.0258022865537334,-0.0427631578947368));
#369=CARTESIAN_POINT('',(-0.0862068965517241,0.0291619592820841,-0.0394736842105263));
#370=CARTESIAN_POINT('',(-0.0862068965517241,0.0322528581921667,-0.0361842105263158));
#371=CARTESIAN_POINT('',(-0.0862068965517241,0.0350749832839813,-0.0328947368421053));
#372=CARTESIAN_POINT('',(-0.0862068965517241,0.0376283345575278,-0.0296052631578947));
#373=CARTESIAN_POINT('',(-0.0862068965517241,0.0399129120128063,-0.0263157894736842));
#374=CARTESIAN_POINT('',(-0.0862068965517241,0.0419287156498167,-0.0230263157894737));
#375=CARTESIAN_POINT('',(-0.0862068965517241,0.0436757454685591,-0.0197368421052632));
#376=CARTESIAN_POINT('',(-0.0862068965517241,0.0451540014690334,-0.0164473684210526));
#377=CARTESIAN_POINT('',(-0.0862068965517241,0.0463634836512396,-0.0131578947368421));
#378=CARTESIAN_POINT('',(-0.0862068965517241,0.0473041920151778,-0.00986842105263158));
#379=CARTESIAN_POINT('',(-0.0862068965517241,0.047976126560848,-0.00657894736842105));
#380=CARTESIAN_POINT('',(-0.0862068965517241,0.04837928728825,-0.00328947368421053));
#381=CARTESIAN_POINT('',(-0.0862068965517242,0.0485136741973841,0.));
#382=CARTESIAN_POINT('',(-0.0862068965517241,0.0485136741973841,0.00666666666666667));
#383=CARTESIAN_POINT('',(-0.0862068965517243,0.0485136741973841,0.0133333333333333));
#384=CARTESIAN_POINT('',(-0.0862068965517242,0.0485136741973841,0.02));
#385=CARTESIAN_POINT('',(-0.0517241379310345,0.,-0.0625));
#386=CARTESIAN_POINT('',(-0.0517241379310345,0.00506981202301705,-0.0592105263157895));
#387=CARTESIAN_POINT('',(-0.0517241379310345,0.00986558015289805,-0.0559210526315789));
#388=CARTESIAN_POINT('',(-0.0517241379310345,0.014387304389643,-0.0526315789473684));
#389=CARTESIAN_POINT('',(-0.0517241379310345,0.0186349847332519,-0.0493421052631579));
#390=CARTESIAN_POINT('',(-0.0517241379310345,0.0226086211837247,-0.0460526315789474));
#391=CARTESIAN_POINT('',(-0.0517241379310345,0.0263082137410615,-0.0427631578947368));
#392=CARTESIAN_POINT('',(-0.0517241379310345,0.0297337624052622,-0.0394736842105263));
#393=CARTESIAN_POINT('',(-0.0517241379310345,0.0328852671763268,-0.0361842105263158));
#394=CARTESIAN_POINT('',(-0.0517241379310345,0.0357627280542554,-0.0328947368421053));
#395=CARTESIAN_POINT('',(-0.0517241379310345,0.038366145039048,-0.0296052631578947));
#396=CARTESIAN_POINT('',(-0.0517241379310345,0.0406955181307044,-0.0263157894736842));
#397=CARTESIAN_POINT('',(-0.0517241379310345,0.0427508473292249,-0.0230263157894737));
#398=CARTESIAN_POINT('',(-0.0517241379310345,0.0445321326346092,-0.0197368421052632));
#399=CARTESIAN_POINT('',(-0.0517241379310345,0.0460393740468576,-0.0164473684210526));
#400=CARTESIAN_POINT('',(-0.0517241379310345,0.0472725715659698,-0.0131578947368421));
#401=CARTESIAN_POINT('',(-0.0517241379310345,0.048231725191946,-0.00986842105263158));
#402=CARTESIAN_POINT('',(-0.0517241379310345,0.0489168349247861,-0.00657894736842105));
#403=CARTESIAN_POINT('',(-0.0517241379310345,0.0493279007644902,-0.00328947368421053));
#404=CARTESIAN_POINT('',(-0.0517241379310345,0.0494649227110583,0.));
#405=CARTESIAN_POINT('',(-0.0517241379310345,0.0494649227110583,0.00666666666666667));
#406=CARTESIAN_POINT('',(-0.0517241379310345,0.0494649227110583,0.0133333333333333));
#407=CARTESIAN_POINT('',(-0.0517241379310345,0.0494649227110583,0.02));
#408=CARTESIAN_POINT('',(-0.0172413793103448,0.,-0.0625));
#409=CARTESIAN_POINT('',(-0.0172413793103448,0.00511856021554606,-0.0592105263157895));
#410=CARTESIAN_POINT('',(-0.0172413793103448,0.00996044150052207,-0.0559210526315789));
#411=CARTESIAN_POINT('',(-0.0172413793103448,0.014525643854928,-0.0526315789473684));
#412=CARTESIAN_POINT('',(-0.0172413793103448,0.0188141672787639,-0.0493421052631579));
#413=CARTESIAN_POINT('',(-0.0172413793103448,0.0228260117720297,-0.0460526315789474));
#414=CARTESIAN_POINT('',(-0.0172413793103448,0.0265611773347255,-0.0427631578947368));
#415=CARTESIAN_POINT('',(-0.0172413793103448,0.0300196639668512,-0.0394736842105263));
#416=CARTESIAN_POINT('',(-0.0172413793103448,0.0332014716684069,-0.0361842105263158));
#417=CARTESIAN_POINT('',(-0.0172413793103448,0.0361066004393925,-0.0328947368421053));
#418=CARTESIAN_POINT('',(-0.0172413793103448,0.038735050279808,-0.0296052631578947));
#419=CARTESIAN_POINT('',(-0.0172413793103448,0.0410868211896535,-0.0263157894736842));
#420=CARTESIAN_POINT('',(-0.0172413793103448,0.043161913168929,-0.0230263157894737));
#421=CARTESIAN_POINT('',(-0.0172413793103448,0.0449603262176343,-0.0197368421052632));
#422=CARTESIAN_POINT('',(-0.0172413793103448,0.0464820603357696,-0.0164473684210526));
#423=CARTESIAN_POINT('',(-0.0172413793103448,0.0477271155233349,-0.0131578947368421));
#424=CARTESIAN_POINT('',(-0.0172413793103448,0.0486954917803301,-0.00986842105263158));
#425=CARTESIAN_POINT('',(-0.0172413793103448,0.0493871891067552,-0.00657894736842105));
#426=CARTESIAN_POINT('',(-0.0172413793103448,0.0498022075026103,-0.00328947368421053));
#427=CARTESIAN_POINT('',(-0.0172413793103448,0.0499405469678954,0.));
#428=CARTESIAN_POINT('',(-0.0172413793103448,0.0499405469678954,0.00666666666666667));
#429=CARTESIAN_POINT('',(-0.0172413793103448,0.0499405469678954,0.0133333333333333));
#430=CARTESIAN_POINT('',(-0.0172413793103448,0.0499405469678954,0.02));
#431=CARTESIAN_POINT('',(0.0172413793103449,0.,-0.0625));
#432=CARTESIAN_POINT('',(0.0172413793103449,0.00511856021554606,-0.0592105263157895));
#433=CARTESIAN_POINT('',(0.0172413793103449,0.00996044150052207,-0.0559210526315789));
#434=CARTESIAN_POINT('',(0.0172413793103449,0.014525643854928,-0.0526315789473684));
#435=CARTESIAN_POINT('',(0.0172413793103449,0.0188141672787639,-0.0493421052631579));
#436=CARTESIAN_POINT('',(0.0172413793103449,0.0228260117720297,-0.0460526315789474));
#437=CARTESIAN_POINT('',(0.0172413793103449,0.0265611773347255,-0.0427631578947368));
#438=CARTESIAN_POINT('',(0.0172413793103449,0.0300196639668512,-0.0394736842105263));
#439=CARTESIAN_POINT('',(0.0172413793103449,0.0332014716684069,-0.0361842105263158));
#440=CARTESIAN_POINT('',(0.0172413793103449,0.0361066004393925,-0.0328947368421053));
#441=CARTESIAN_POINT('',(0.0172413793103449,0.038735050279808,-0.0296052631578947));
#442=CARTESIAN_POINT('',(0.0172413793103449,0.0410868211896535,-0.0263157894736842));
#443=CARTESIAN_POINT('',(0.0172413793103449,0.043161913168929,-0.0230263157894737));
#444=CARTESIAN_POINT('',(0.0172413793103449,0.0449603262176343,-0.0197368421052632));
#445=CARTESIAN_POINT('',(0.0172413793103449,0.0464820603357696,-0.0164473684210526));
#446=CARTESIAN_POINT('',(0.0172413793103449,0.0477271155233349,-0.0131578947368421));
#447=CARTESIAN_POINT('',(0.0172413793103449,0.0486954917803301,-0.00986842105263158));
#448=CARTESIAN_POINT('',(0.0172413793103449,0.0493871891067552,-0.00657894736842105));
#449=CARTESIAN_POINT('',(0.0172413793103449,0.0498022075026103,-0.00328947368421053));
#450=CARTESIAN_POINT('',(0.0172413793103449,0.0499405469678954,0.));
#451=CARTESIAN_POINT('',(0.0172413793103449,0.0499405469678954,0.00666666666666667));
#452=CARTESIAN_POINT('',(0.0172413793103449,0.0499405469678954,0.0133333333333333));
#453=CARTESIAN_POINT('',(0.0172413793103449,0.0499405469678954,0.02));
#454=CARTESIAN_POINT('',(0.0517241379310345,0.,-0.0625));
#455=CARTESIAN_POINT('',(0.0517241379310345,0.00506981202301705,-0.0592105263157895));
#456=CARTESIAN_POINT('',(0.0517241379310345,0.00986558015289805,-0.0559210526315789));
#457=CARTESIAN_POINT('',(0.0517241379310345,0.014387304389643,-0.0526315789473684));
#458=CARTESIAN_POINT('',(0.0517241379310345,0.0186349847332519,-0.0493421052631579));
#459=CARTESIAN_POINT('',(0.0517241379310345,0.0226086211837247,-0.0460526315789474));
#460=CARTESIAN_POINT('',(0.0517241379310345,0.0263082137410615,-0.0427631578947368));
#461=CARTESIAN_POINT('',(0.0517241379310345,0.0297337624052622,-0.0394736842105263));
#462=CARTESIAN_POINT('',(0.0517241379310345,0.0328852671763268,-0.0361842105263158));
#463=CARTESIAN_POINT('',(0.0517241379310345,0.0357627280542554,-0.0328947368421053));
#464=CARTESIAN_POINT('',(0.0517241379310345,0.038366145039048,-0.0296052631578947));
#465=CARTESIAN_POINT('',(0.0517241379310345,0.0406955181307044,-0.0263157894736842));
#466=CARTESIAN_POINT('',(0.0517241379310345,0.0427508473292249,-0.0230263157894737));
#467=CARTESIAN_POINT('',(0.0517241379310345,0.0445321326346092,-0.0197368421052632));
#468=CARTESIAN_POINT('',(0.0517241379310345,0.0460393740468576,-0.0164473684210526));
#469=CARTESIAN_POINT('',(0.0517241379310345,0.0472725715659698,-0.0131578947368421));
#470=CARTESIAN_POINT('',(0.0517241379310345,0.048231725191946,-0.00986842105263158));
#471=CARTESIAN_POINT('',(0.0517241379310345,0.0489168349247861,-0.00657894736842105));
#472=CARTESIAN_POINT('',(0.0517241379310345,0.0493279007644902,-0.00328947368421053));
#473=CARTESIAN_POINT('',(0.0517241379310345,0.0494649227110583,0.));
#474=CARTESIAN_POINT('',(0.0517241379310345,0.0494649227110583,0.00666666666666667));
#475=CARTESIAN_POINT('',(0.0517241379310345,0.0494649227110583,0.0133333333333333));
#476=CARTESIAN_POINT('',(0.0517241379310345,0.0494649227110583,0.02));
#477=CARTESIAN_POINT('',(0.0862068965517241,0.,-0.0625));
#478=CARTESIAN_POINT('',(0.0862068965517241,0.00497231563795903,-0.0592105263157895));
#479=CARTESIAN_POINT('',(0.0862068965517241,0.00967585745765001,-0.0559210526315789));
#480=CARTESIAN_POINT('',(0.0862068965517241,0.0141106254590729,-0.0526315789473684));
#481=CARTESIAN_POINT('',(0.0862068965517241,0.0182766196422278,-0.0493421052631579));
#482=CARTESIAN_POINT('',(0.0862068965517241,0.0221738400071146,-0.0460526315789474));
#483=CARTESIAN_POINT('',(0.0862068965517241,0.0258022865537334,-0.0427631578947368));
#484=CARTESIAN_POINT('',(0.0862068965517241,0.0291619592820841,-0.0394736842105263));
#485=CARTESIAN_POINT('',(0.0862068965517241,0.0322528581921667,-0.0361842105263158));
#486=CARTESIAN_POINT('',(0.0862068965517241,0.0350749832839813,-0.0328947368421053));
#487=CARTESIAN_POINT('',(0.0862068965517241,0.0376283345575278,-0.0296052631578947));
#488=CARTESIAN_POINT('',(0.0862068965517241,0.0399129120128063,-0.0263157894736842));
#489=CARTESIAN_POINT('',(0.0862068965517241,0.0419287156498167,-0.0230263157894737));
#490=CARTESIAN_POINT('',(0.0862068965517241,0.0436757454685591,-0.0197368421052632));
#491=CARTESIAN_POINT('',(0.0862068965517241,0.0451540014690334,-0.0164473684210526));
#492=CARTESIAN_POINT('',(0.0862068965517241,0.0463634836512396,-0.0131578947368421));
#493=CARTESIAN_POINT('',(0.0862068965517241,0.0473041920151778,-0.00986842105263158));
#494=CARTESIAN_POINT('',(0.0862068965517241,0.047976126560848,-0.00657894736842105));
#495=CARTESIAN_POINT('',(0.0862068965517241,0.04837928728825,-0.00328947368421053));
#496=CARTESIAN_POINT('',(0.0862068965517241,0.0485136741973841,0.));
#497=CARTESIAN_POINT('',(0.0862068965517241,0.0485136741973841,0.00666666666666667));
#498=CARTESIAN_POINT('',(0.0862068965517241,0.0485136741973841,0.0133333333333333));
#499=CARTESIAN_POINT('',(0.0862068965517241,0.0485136741973841,0.02));
#500=CARTESIAN_POINT('',(0.120689655172414,0.,-0.0625));
#501=CARTESIAN_POINT('',(0.120689655172414,0.004826071060372,-0.0592105263157895));
#502=CARTESIAN_POINT('',(0.120689655172414,0.00939127341477795,-0.0559210526315789));
#503=CARTESIAN_POINT('',(0.120689655172414,0.0136956070632178,-0.0526315789473684));
#504=CARTESIAN_POINT('',(0.120689655172414,0.0177390720056917,-0.0493421052631579));
#505=CARTESIAN_POINT('',(0.120689655172414,0.0215216682421995,-0.0460526315789474));
#506=CARTESIAN_POINT('',(0.120689655172414,0.0250433957727412,-0.0427631578947368));
#507=CARTESIAN_POINT('',(0.120689655172414,0.0283042545973169,-0.0394736842105263));
#508=CARTESIAN_POINT('',(0.120689655172414,0.0313042447159265,-0.0361842105263158));
#509=CARTESIAN_POINT('',(0.120689655172414,0.0340433661285701,-0.0328947368421053));
#510=CARTESIAN_POINT('',(0.120689655172414,0.0365216188352476,-0.0296052631578947));
#511=CARTESIAN_POINT('',(0.120689655172414,0.038739002835959,-0.0263157894736842));
#512=CARTESIAN_POINT('',(0.120689655172414,0.0406955181307044,-0.0230263157894737));
#513=CARTESIAN_POINT('',(0.120689655172414,0.0423911647194838,-0.0197368421052632));
#514=CARTESIAN_POINT('',(0.120689655172414,0.0438259426022971,-0.0164473684210526));
#515=CARTESIAN_POINT('',(0.120689655172414,0.0449998517791443,-0.0131578947368421));
#516=CARTESIAN_POINT('',(0.120689655172414,0.0459128922500255,-0.00986842105263158));
#517=CARTESIAN_POINT('',(0.120689655172414,0.0465650640149407,-0.00657894736842105));
#518=CARTESIAN_POINT('',(0.120689655172414,0.0469563670738897,-0.00328947368421053));
#519=CARTESIAN_POINT('',(0.120689655172414,0.0470868014268728,0.));
#520=CARTESIAN_POINT('',(0.120689655172414,0.0470868014268728,0.00666666666666667));
#521=CARTESIAN_POINT('',(0.120689655172414,0.0470868014268728,0.0133333333333333));
#522=CARTESIAN_POINT('',(0.120689655172414,0.0470868014268728,0.02));
#523=CARTESIAN_POINT('',(0.155172413793103,0.,-0.0625));
#524=CARTESIAN_POINT('',(0.155172413793103,0.00463107829025596,-0.0592105263157895));
#525=CARTESIAN_POINT('',(0.155172413793103,0.00901182802428187,-0.0559210526315789));
#526=CARTESIAN_POINT('',(0.155172413793103,0.0131422492020777,-0.0526315789473684));
#527=CARTESIAN_POINT('',(0.155172413793103,0.0170223418236435,-0.0493421052631579));
#528=CARTESIAN_POINT('',(0.155172413793103,0.0206521058889793,-0.0460526315789474));
#529=CARTESIAN_POINT('',(0.155172413793103,0.024031541398085,-0.0427631578947368));
#530=CARTESIAN_POINT('',(0.155172413793103,0.0271606483509606,-0.0394736842105263));
#531=CARTESIAN_POINT('',(0.155172413793103,0.0300394267476062,-0.0361842105263158));
#532=CARTESIAN_POINT('',(0.155172413793103,0.0326678765880218,-0.0328947368421053));
#533=CARTESIAN_POINT('',(0.155172413793103,0.0350459978722073,-0.0296052631578947));
#534=CARTESIAN_POINT('',(0.155172413793103,0.0371737906001627,-0.0263157894736842));
#535=CARTESIAN_POINT('',(0.155172413793103,0.0390512547718881,-0.0230263157894737));
#536=CARTESIAN_POINT('',(0.155172413793103,0.0406783903873834,-0.0197368421052632));
#537=CARTESIAN_POINT('',(0.155172413793103,0.0420551974466487,-0.0164473684210526));
#538=CARTESIAN_POINT('',(0.155172413793103,0.043181675949684,-0.0131578947368421));
#539=CARTESIAN_POINT('',(0.155172413793103,0.0440578258964891,-0.00986842105263158));
#540=CARTESIAN_POINT('',(0.155172413793103,0.0446836472870643,-0.00657894736842105));
#541=CARTESIAN_POINT('',(0.155172413793103,0.0450591401214094,-0.00328947368421053));
#542=CARTESIAN_POINT('',(0.155172413793103,0.0451843043995244,0.));
#543=CARTESIAN_POINT('',(0.155172413793103,0.0451843043995244,0.00666666666666667));
#544=CARTESIAN_POINT('',(0.155172413793103,0.0451843043995244,0.0133333333333333));
#545=CARTESIAN_POINT('',(0.155172413793103,0.0451843043995244,0.02));
#546=CARTESIAN_POINT('',(0.189655172413793,0.,-0.0625));
#547=CARTESIAN_POINT('',(0.189655172413793,0.00438733732761091,-0.0592105263157895));
#548=CARTESIAN_POINT('',(0.189655172413793,0.00853752128616177,-0.0559210526315789));
#549=CARTESIAN_POINT('',(0.189655172413793,0.0124505518756526,-0.0526315789473684));
#550=CARTESIAN_POINT('',(0.189655172413793,0.0161264290960833,-0.0493421052631579));
#551=CARTESIAN_POINT('',(0.189655172413793,0.0195651529474541,-0.0460526315789474));
#552=CARTESIAN_POINT('',(0.189655172413793,0.0227667234297647,-0.0427631578947368));
#553=CARTESIAN_POINT('',(0.189655172413793,0.0257311405430153,-0.0394736842105263));
#554=CARTESIAN_POINT('',(0.189655172413793,0.0284584042872059,-0.0361842105263158));
#555=CARTESIAN_POINT('',(0.189655172413793,0.0309485146623364,-0.0328947368421053));
#556=CARTESIAN_POINT('',(0.189655172413793,0.0332014716684069,-0.0296052631578947));
#557=CARTESIAN_POINT('',(0.189655172413793,0.0352172753054173,-0.0263157894736842));
#558=CARTESIAN_POINT('',(0.189655172413793,0.0369959255733677,-0.0230263157894737));
#559=CARTESIAN_POINT('',(0.189655172413793,0.038537422472258,-0.0197368421052632));
#560=CARTESIAN_POINT('',(0.189655172413793,0.0398417660020883,-0.0164473684210526));
#561=CARTESIAN_POINT('',(0.189655172413793,0.0409089561628585,-0.0131578947368421));
#562=CARTESIAN_POINT('',(0.189655172413793,0.0417389929545687,-0.00986842105263158));
#563=CARTESIAN_POINT('',(0.189655172413793,0.0423318763772188,-0.00657894736842105));
#564=CARTESIAN_POINT('',(0.189655172413793,0.0426876064308089,-0.00328947368421053));
#565=CARTESIAN_POINT('',(0.189655172413793,0.0428061831153389,0.));
#566=CARTESIAN_POINT('',(0.189655172413793,0.0428061831153389,0.00666666666666667));
#567=CARTESIAN_POINT('',(0.189655172413793,0.0428061831153389,0.0133333333333333));
#568=CARTESIAN_POINT('',(0.189655172413793,0.0428061831153389,0.02));
#569=CARTESIAN_POINT('',(0.224137931034483,0.,-0.0625));
#570=CARTESIAN_POINT('',(0.224137931034483,0.00409484817243685,-0.0592105263157895));
#571=CARTESIAN_POINT('',(0.224137931034483,0.00796835320041765,-0.0559210526315789));
#572=CARTESIAN_POINT('',(0.224137931034483,0.0116205150839424,-0.0526315789473684));
#573=CARTESIAN_POINT('',(0.224137931034483,0.0150513338230111,-0.0493421052631579));
#574=CARTESIAN_POINT('',(0.224137931034483,0.0182608094176238,-0.0460526315789474));
#575=CARTESIAN_POINT('',(0.224137931034483,0.0212489418677804,-0.0427631578947368));
#576=CARTESIAN_POINT('',(0.224137931034483,0.024015731173481,-0.0394736842105263));
#577=CARTESIAN_POINT('',(0.224137931034483,0.0265611773347255,-0.0361842105263158));
#578=CARTESIAN_POINT('',(0.224137931034483,0.028885280351514,-0.0328947368421053));
#579=CARTESIAN_POINT('',(0.224137931034483,0.0309880402238464,-0.0296052631578947));
#580=CARTESIAN_POINT('',(0.224137931034483,0.0328694569517228,-0.0263157894736842));
#581=CARTESIAN_POINT('',(0.224137931034483,0.0345295305351432,-0.0230263157894737));
#582=CARTESIAN_POINT('',(0.224137931034483,0.0359682609741075,-0.0197368421052632));
#583=CARTESIAN_POINT('',(0.224137931034483,0.0371856482686157,-0.0164473684210526));
#584=CARTESIAN_POINT('',(0.224137931034483,0.0381816924186679,-0.0131578947368421));
#585=CARTESIAN_POINT('',(0.224137931034483,0.0389563934242641,-0.00986842105263158));
#586=CARTESIAN_POINT('',(0.224137931034483,0.0395097512854042,-0.00657894736842105));
#587=CARTESIAN_POINT('',(0.224137931034483,0.0398417660020883,-0.00328947368421053));
#588=CARTESIAN_POINT('',(0.224137931034483,0.0399524375743163,0.));
#589=CARTESIAN_POINT('',(0.224137931034483,0.0399524375743163,0.00666666666666667));
#590=CARTESIAN_POINT('',(0.224137931034483,0.0399524375743163,0.0133333333333333));
#591=CARTESIAN_POINT('',(0.224137931034483,0.0399524375743163,0.02));
#592=CARTESIAN_POINT('',(0.258620689655172,0.,-0.0625));
#593=CARTESIAN_POINT('',(0.258620689655172,0.00375361082473378,-0.0592105263157895));
#594=CARTESIAN_POINT('',(0.258620689655172,0.00730432376704952,-0.0559210526315789));
#595=CARTESIAN_POINT('',(0.258620689655172,0.0106521388269472,-0.0526315789473684));
#596=CARTESIAN_POINT('',(0.258620689655172,0.0137970560044269,-0.0493421052631579));
#597=CARTESIAN_POINT('',(0.258620689655172,0.0167390752994885,-0.0460526315789474));
#598=CARTESIAN_POINT('',(0.258620689655172,0.019478196712132,-0.0427631578947368));
#599=CARTESIAN_POINT('',(0.258620689655172,0.0220144202423576,-0.0394736842105263));
#600=CARTESIAN_POINT('',(0.258620689655172,0.0243477458901651,-0.0361842105263158));
#601=CARTESIAN_POINT('',(0.258620689655172,0.0264781736555545,-0.0328947368421053));
#602=CARTESIAN_POINT('',(0.258620689655172,0.0284057035385259,-0.0296052631578947));
#603=CARTESIAN_POINT('',(0.258620689655172,0.0301303355390793,-0.0263157894736842));
#604=CARTESIAN_POINT('',(0.258620689655172,0.0316520696572146,-0.0230263157894737));
#605=CARTESIAN_POINT('',(0.258620689655172,0.0329709058929318,-0.0197368421052632));
#606=CARTESIAN_POINT('',(0.258620689655172,0.0340868442462311,-0.0164473684210526));
#607=CARTESIAN_POINT('',(0.258620689655172,0.0349998847171123,-0.0131578947368421));
#608=CARTESIAN_POINT('',(0.258620689655172,0.0357100273055754,-0.00986842105263158));
#609=CARTESIAN_POINT('',(0.258620689655172,0.0362172720116205,-0.00657894736842105));
#610=CARTESIAN_POINT('',(0.258620689655172,0.0365216188352476,-0.00328947368421053));
#611=CARTESIAN_POINT('',(0.258620689655172,0.0366230677764566,0.));
#612=CARTESIAN_POINT('',(0.258620689655172,0.0366230677764566,0.00666666666666667));
#613=CARTESIAN_POINT('',(0.258620689655172,0.0366230677764566,0.0133333333333333));
#614=CARTESIAN_POINT('',(0.258620689655172,0.0366230677764566,0.02));
#615=CARTESIAN_POINT('',(0.293103448275862,0.,-0.0625));
#616=CARTESIAN_POINT('',(0.293103448275862,0.00336362528450169,-0.0592105263157895));
#617=CARTESIAN_POINT('',(0.293103448275862,0.00654543298605736,-0.0559210526315789));
#618=CARTESIAN_POINT('',(0.293103448275862,0.00954542310466698,-0.0526315789473684));
#619=CARTESIAN_POINT('',(0.293103448275862,0.0123635956403306,-0.0493421052631579));
#620=CARTESIAN_POINT('',(0.293103448275862,0.0149999505930481,-0.0460526315789474));
#621=CARTESIAN_POINT('',(0.293103448275862,0.0174544879628196,-0.0427631578947368));
#622=CARTESIAN_POINT('',(0.293103448275862,0.0197272077496451,-0.0394736842105263));
#623=CARTESIAN_POINT('',(0.293103448275862,0.0218181099535245,-0.0361842105263158));
#624=CARTESIAN_POINT('',(0.293103448275862,0.0237271945744579,-0.0328947368421053));
#625=CARTESIAN_POINT('',(0.293103448275862,0.0254544616124453,-0.0296052631578947));
#626=CARTESIAN_POINT('',(0.293103448275862,0.0269999110674866,-0.0263157894736842));
#627=CARTESIAN_POINT('',(0.293103448275862,0.0283635429395819,-0.0230263157894737));
#628=CARTESIAN_POINT('',(0.293103448275862,0.0295453572287311,-0.0197368421052632));
#629=CARTESIAN_POINT('',(0.293103448275862,0.0305453539349343,-0.0164473684210526));
#630=CARTESIAN_POINT('',(0.293103448275862,0.0313635330581915,-0.0131578947368421));
#631=CARTESIAN_POINT('',(0.293103448275862,0.0319998945985026,-0.00986842105263158));
#632=CARTESIAN_POINT('',(0.293103448275862,0.0324544385558677,-0.00657894736842105));
#633=CARTESIAN_POINT('',(0.293103448275862,0.0327271649302868,-0.00328947368421053));
#634=CARTESIAN_POINT('',(0.293103448275862,0.0328180737217598,0.));
#635=CARTESIAN_POINT('',(0.293103448275862,0.0328180737217598,0.00666666666666667));
#636=CARTESIAN_POINT('',(0.293103448275862,0.0328180737217598,0.0133333333333333));
#637=CARTESIAN_POINT('',(0.293103448275862,0.0328180737217598,0.02));
#638=CARTESIAN_POINT('',(0.327586206896552,0.,-0.0625));
#639=CARTESIAN_POINT('',(0.327586206896552,0.0029248915517406,-0.0592105263157895));
#640=CARTESIAN_POINT('',(0.327586206896552,0.00569168085744118,-0.0559210526315789));
#641=CARTESIAN_POINT('',(0.327586206896552,0.00830036791710173,-0.0526315789473684));
#642=CARTESIAN_POINT('',(0.327586206896552,0.0107509527307222,-0.0493421052631579));
#643=CARTESIAN_POINT('',(0.327586206896552,0.0130434352983027,-0.0460526315789474));
#644=CARTESIAN_POINT('',(0.327586206896552,0.0151778156198432,-0.0427631578947368));
#645=CARTESIAN_POINT('',(0.327586206896552,0.0171540936953436,-0.0394736842105263));
#646=CARTESIAN_POINT('',(0.327586206896552,0.0189722695248039,-0.0361842105263158));
#647=CARTESIAN_POINT('',(0.327586206896552,0.0206323431082243,-0.0328947368421053));
#648=CARTESIAN_POINT('',(0.327586206896552,0.0221343144456046,-0.0296052631578947));
#649=CARTESIAN_POINT('',(0.327586206896552,0.0234781835369449,-0.0263157894736842));
#650=CARTESIAN_POINT('',(0.327586206896552,0.0246639503822451,-0.0230263157894737));
#651=CARTESIAN_POINT('',(0.327586206896552,0.0256916149815053,-0.0197368421052632));
#652=CARTESIAN_POINT('',(0.327586206896552,0.0265611773347255,-0.0164473684210526));
#653=CARTESIAN_POINT('',(0.327586206896552,0.0272726374419057,-0.0131578947368421));
#654=CARTESIAN_POINT('',(0.327586206896552,0.0278259953030458,-0.00986842105263158));
#655=CARTESIAN_POINT('',(0.327586206896552,0.0282212509181459,-0.00657894736842105));
#656=CARTESIAN_POINT('',(0.327586206896552,0.0284584042872059,-0.00328947368421053));
#657=CARTESIAN_POINT('',(0.327586206896552,0.0285374554102259,0.));
#658=CARTESIAN_POINT('',(0.327586206896552,0.0285374554102259,0.00666666666666667));
#659=CARTESIAN_POINT('',(0.327586206896552,0.0285374554102259,0.0133333333333333));
#660=CARTESIAN_POINT('',(0.327586206896552,0.0285374554102259,0.02));
#661=CARTESIAN_POINT('',(0.362068965517241,0.,-0.0625));
#662=CARTESIAN_POINT('',(0.362068965517241,0.0024374096264505,-0.0592105263157895));
#663=CARTESIAN_POINT('',(0.362068965517241,0.00474306738120099,-0.0559210526315789));
#664=CARTESIAN_POINT('',(0.362068965517241,0.00691697326425144,-0.0526315789473684));
#665=CARTESIAN_POINT('',(0.362068965517241,0.00895912727560186,-0.0493421052631579));
#666=CARTESIAN_POINT('',(0.362068965517241,0.0108695294152523,-0.0460526315789474));
#667=CARTESIAN_POINT('',(0.362068965517241,0.0126481796832026,-0.0427631578947368));
#668=CARTESIAN_POINT('',(0.362068965517241,0.014295078079453,-0.0394736842105263));
#669=CARTESIAN_POINT('',(0.362068965517241,0.0158102246040033,-0.0361842105263158));
#670=CARTESIAN_POINT('',(0.362068965517241,0.0171936192568536,-0.0328947368421053));
#671=CARTESIAN_POINT('',(0.362068965517241,0.0184452620380038,-0.0296052631578947));
#672=CARTESIAN_POINT('',(0.362068965517241,0.0195651529474541,-0.0263157894736842));
#673=CARTESIAN_POINT('',(0.362068965517241,0.0205532919852043,-0.0230263157894737));
#674=CARTESIAN_POINT('',(0.362068965517241,0.0214096791512545,-0.0197368421052632));
#675=CARTESIAN_POINT('',(0.362068965517241,0.0221343144456046,-0.0164473684210526));
#676=CARTESIAN_POINT('',(0.362068965517241,0.0227271978682547,-0.0131578947368421));
#677=CARTESIAN_POINT('',(0.362068965517241,0.0231883294192048,-0.00986842105263158));
#678=CARTESIAN_POINT('',(0.362068965517241,0.0235177090984549,-0.00657894736842105));
#679=CARTESIAN_POINT('',(0.362068965517241,0.0237153369060049,-0.00328947368421053));
#680=CARTESIAN_POINT('',(0.362068965517241,0.0237812128418549,0.));
#681=CARTESIAN_POINT('',(0.362068965517241,0.023781212841855,0.00666666666666667));
#682=CARTESIAN_POINT('',(0.362068965517241,0.0237812128418549,0.0133333333333333));
#683=CARTESIAN_POINT('',(0.362068965517241,0.0237812128418549,0.02));
#684=CARTESIAN_POINT('',(0.396551724137931,0.,-0.0625));
#685=CARTESIAN_POINT('',(0.396551724137931,0.00190117950863139,-0.0592105263157895));
#686=CARTESIAN_POINT('',(0.396551724137931,0.00369959255733677,-0.0559210526315789));
#687=CARTESIAN_POINT('',(0.396551724137931,0.00539523914611612,-0.0526315789473684));
#688=CARTESIAN_POINT('',(0.396551724137931,0.00698811927496945,-0.0493421052631579));
#689=CARTESIAN_POINT('',(0.396551724137931,0.00847823294389675,-0.0460526315789474));
#690=CARTESIAN_POINT('',(0.396551724137931,0.00986558015289805,-0.0427631578947368));
#691=CARTESIAN_POINT('',(0.396551724137931,0.0111501609019733,-0.0394736842105263));
#692=CARTESIAN_POINT('',(0.396551724137931,0.0123319751911226,-0.0361842105263158));
#693=CARTESIAN_POINT('',(0.396551724137931,0.0134110230203458,-0.0328947368421053));
#694=CARTESIAN_POINT('',(0.396551724137931,0.014387304389643,-0.0296052631578947));
#695=CARTESIAN_POINT('',(0.396551724137931,0.0152608192990142,-0.0263157894736842));
#696=CARTESIAN_POINT('',(0.396551724137931,0.0160315677484593,-0.0230263157894737));
#697=CARTESIAN_POINT('',(0.396551724137931,0.0166995497379785,-0.0197368421052632));
#698=CARTESIAN_POINT('',(0.396551724137931,0.0172647652675716,-0.0164473684210526));
#699=CARTESIAN_POINT('',(0.396551724137931,0.0177272143372387,-0.0131578947368421));
#700=CARTESIAN_POINT('',(0.396551724137931,0.0180868969469797,-0.00986842105263158));
#701=CARTESIAN_POINT('',(0.396551724137931,0.0183438130967948,-0.00657894736842105));
#702=CARTESIAN_POINT('',(0.396551724137931,0.0184979627866838,-0.00328947368421053));
#703=CARTESIAN_POINT('',(0.396551724137931,0.0185493460166468,0.));
#704=CARTESIAN_POINT('',(0.396551724137931,0.0185493460166468,0.00666666666666667));
#705=CARTESIAN_POINT('',(0.396551724137931,0.0185493460166468,0.0133333333333333));
#706=CARTESIAN_POINT('',(0.396551724137931,0.0185493460166468,0.02));
#707=CARTESIAN_POINT('',(0.431034482758621,0.,-0.0625));
#708=CARTESIAN_POINT('',(0.431034482758621,0.00131620119828327,-0.0592105263157895));
#709=CARTESIAN_POINT('',(0.431034482758621,0.00256125638584853,-0.0559210526315789));
#710=CARTESIAN_POINT('',(0.431034482758621,0.00373516556269578,-0.0526315789473684));
#711=CARTESIAN_POINT('',(0.431034482758621,0.00483792872882501,-0.0493421052631579));
#712=CARTESIAN_POINT('',(0.431034482758621,0.00586954588423622,-0.0460526315789474));
#713=CARTESIAN_POINT('',(0.431034482758621,0.00683001702892942,-0.0427631578947368));
#714=CARTESIAN_POINT('',(0.431034482758621,0.00771934216290461,-0.0394736842105263));
#715=CARTESIAN_POINT('',(0.431034482758621,0.00853752128616178,-0.0361842105263158));
#716=CARTESIAN_POINT('',(0.431034482758621,0.00928455439870093,-0.0328947368421053));
#717=CARTESIAN_POINT('',(0.431034482758621,0.00996044150052207,-0.0296052631578947));
#718=CARTESIAN_POINT('',(0.431034482758621,0.0105651825916252,-0.0263157894736842));
#719=CARTESIAN_POINT('',(0.431034482758621,0.0110987776720103,-0.0230263157894737));
#720=CARTESIAN_POINT('',(0.431034482758621,0.0115612267416774,-0.0197368421052632));
#721=CARTESIAN_POINT('',(0.431034482758621,0.0119525298006265,-0.0164473684210526));
#722=CARTESIAN_POINT('',(0.431034482758621,0.0122726868488576,-0.0131578947368421));
#723=CARTESIAN_POINT('',(0.431034482758621,0.0125216978863706,-0.00986842105263158));
#724=CARTESIAN_POINT('',(0.431034482758621,0.0126995629131656,-0.00657894736842105));
#725=CARTESIAN_POINT('',(0.431034482758621,0.0128062819292427,-0.00328947368421053));
#726=CARTESIAN_POINT('',(0.431034482758621,0.0128418549346017,0.));
#727=CARTESIAN_POINT('',(0.431034482758621,0.0128418549346017,0.00666666666666667));
#728=CARTESIAN_POINT('',(0.431034482758621,0.0128418549346017,0.0133333333333333));
#729=CARTESIAN_POINT('',(0.431034482758621,0.0128418549346017,0.02));
#730=CARTESIAN_POINT('',(0.46551724137931,0.,-0.0625));
#731=CARTESIAN_POINT('',(0.46551724137931,0.000682474695406141,-0.0592105263157895));
#732=CARTESIAN_POINT('',(0.46551724137931,0.00132805886673627,-0.0559210526315789));
#733=CARTESIAN_POINT('',(0.46551724137931,0.0019367525139904,-0.0526315789473684));
#734=CARTESIAN_POINT('',(0.46551724137931,0.00250855563716852,-0.0493421052631579));
#735=CARTESIAN_POINT('',(0.46551724137931,0.00304346823627063,-0.0460526315789474));
#736=CARTESIAN_POINT('',(0.46551724137931,0.00354149031129673,-0.0427631578947368));
#737=CARTESIAN_POINT('',(0.46551724137931,0.00400262186224683,-0.0394736842105263));
#738=CARTESIAN_POINT('',(0.46551724137931,0.00442686288912092,-0.0361842105263158));
#739=CARTESIAN_POINT('',(0.46551724137931,0.00481421339191899,-0.0328947368421053));
#740=CARTESIAN_POINT('',(0.46551724137931,0.00516467337064107,-0.0296052631578947));
#741=CARTESIAN_POINT('',(0.46551724137931,0.00547824282528713,-0.0263157894736842));
#742=CARTESIAN_POINT('',(0.46551724137931,0.00575492175585719,-0.0230263157894737));
#743=CARTESIAN_POINT('',(0.46551724137931,0.00599471016235124,-0.0197368421052632));
#744=CARTESIAN_POINT('',(0.46551724137931,0.00619760804476928,-0.0164473684210526));
#745=CARTESIAN_POINT('',(0.46551724137931,0.00636361540311132,-0.0131578947368421));
#746=CARTESIAN_POINT('',(0.46551724137931,0.00649273223737734,-0.00986842105263158));
#747=CARTESIAN_POINT('',(0.46551724137931,0.00658495854756736,-0.00657894736842105));
#748=CARTESIAN_POINT('',(0.46551724137931,0.00664029433368137,-0.00328947368421053));
#749=CARTESIAN_POINT('',(0.46551724137931,0.00665873959571938,0.));
#750=CARTESIAN_POINT('',(0.46551724137931,0.00665873959571938,0.00666666666666667));
#751=CARTESIAN_POINT('',(0.46551724137931,0.00665873959571938,0.0133333333333333));
#752=CARTESIAN_POINT('',(0.46551724137931,0.00665873959571938,0.02));
#753=CARTESIAN_POINT('',(0.5,0.,-0.0625));
#754=CARTESIAN_POINT('',(0.5,0.,-0.0592105263157895));
#755=CARTESIAN_POINT('',(0.5,0.,-0.0559210526315789));
#756=CARTESIAN_POINT('',(0.5,0.,-0.0526315789473684));
#757=CARTESIAN_POINT('',(0.5,0.,-0.0493421052631579));
#758=CARTESIAN_POINT('',(0.5,0.,-0.0460526315789474));
#759=CARTESIAN_POINT('',(0.5,0.,-0.0427631578947368));
#760=CARTESIAN_POINT('',(0.5,0.,-0.0394736842105263));
#761=CARTESIAN_POINT('',(0.5,0.,-0.0361842105263158));
#762=CARTESIAN_POINT('',(0.5,0.,-0.0328947368421053));
#763=CARTESIAN_POINT('',(0.5,0.,-0.0296052631578947));
#764=CARTESIAN_POINT('',(0.5,0.,-0.0263157894736842));
#765=CARTESIAN_POINT('',(0.5,0.,-0.0230263157894737));
#766=CARTESIAN_POINT('',(0.5,0.,-0.0197368421052632));
#767=CARTESIAN_POINT('',(0.5,0.,-0.0164473684210526));
#768=CARTESIAN_POINT('',(0.5,0.,-0.0131578947368421));
#769=CARTESIAN_POINT('',(0.5,0.,-0.00986842105263158));
#770=CARTESIAN_POINT('',(0.5,0.,-0.00657894736842105));
#771=CARTESIAN_POINT('',(0.5,0.,-0.00328947368421053));
#772=CARTESIAN_POINT('',(0.5,0.,0.));
#773=CARTESIAN_POINT('',(0.5,0.,0.00666666666666667));
#774=CARTESIAN_POINT('',(0.5,0.,0.0133333333333333));
#775=CARTESIAN_POINT('',(0.5,0.,0.02));
#776=CARTESIAN_POINT('',(-0.5,0.,-0.0625));
#777=CARTESIAN_POINT('',(0.5,0.,-0.0625));
#778=CARTESIAN_POINT('',(-0.5,0.,0.02));
#779=CARTESIAN_POINT('',(0.5,0.,0.02));
#780=CARTESIAN_POINT('',(-0.5,0.,0.02));
#781=CARTESIAN_POINT('',(-0.5,0.,0.0133333333333333));
#782=CARTESIAN_POINT('',(-0.5,0.,0.00666666666666667));
#783=CARTESIAN_POINT('',(-0.5,0.,0.000727587208695671));
#784=CARTESIAN_POINT('',(-0.5,0.,-0.0016300016439671));
#785=CARTESIAN_POINT('',(-0.5,0.,-0.00220765058929606));
#786=CARTESIAN_POINT('',(-0.5,0.,-0.00328947368421053));
#787=CARTESIAN_POINT('',(-0.5,0.,-0.00657894736842105));
#788=CARTESIAN_POINT('',(-0.5,0.,-0.00986842105263158));
#789=CARTESIAN_POINT('',(-0.5,0.,-0.0131578947368421));
#790=CARTESIAN_POINT('',(-0.5,0.,-0.0164473684210526));
#791=CARTESIAN_POINT('',(-0.5,0.,-0.0197368421052632));
#792=CARTESIAN_POINT('',(-0.5,0.,-0.0230263157894737));
#793=CARTESIAN_POINT('',(-0.5,0.,-0.0263157894736842));
#794=CARTESIAN_POINT('',(-0.5,0.,-0.0296052631578947));
#795=CARTESIAN_POINT('',(-0.5,0.,-0.0328947368421053));
#796=CARTESIAN_POINT('',(-0.5,0.,-0.0361842105263158));
#797=CARTESIAN_POINT('',(-0.5,0.,-0.0394736842105263));
#798=CARTESIAN_POINT('',(-0.5,0.,-0.0427631578947368));
#799=CARTESIAN_POINT('',(-0.5,0.,-0.0460526315789474));
#800=CARTESIAN_POINT('',(-0.5,0.,-0.0493421052631579));
#801=CARTESIAN_POINT('',(-0.5,0.,-0.0526315789473684));
#802=CARTESIAN_POINT('',(-0.5,0.,-0.0559210526315789));
#803=CARTESIAN_POINT('',(-0.5,0.,-0.0592105263157895));
#804=CARTESIAN_POINT('',(-0.5,0.,-0.0625));
#805=CARTESIAN_POINT('',(0.,0.103305721941306));
#806=CARTESIAN_POINT('',(0.,0.0833057219413064));
#807=CARTESIAN_POINT('',(0.,0.));
#808=CARTESIAN_POINT('',(-0.5,0.,-0.0625));
#809=CARTESIAN_POINT('',(-0.46551724137931,0.,-0.0625));
#810=CARTESIAN_POINT('',(-0.431034482758621,0.,-0.0625));
#811=CARTESIAN_POINT('',(-0.396551724137931,0.,-0.0625));
#812=CARTESIAN_POINT('',(-0.362068965517241,0.,-0.0625));
#813=CARTESIAN_POINT('',(-0.327586206896552,0.,-0.0625));
#814=CARTESIAN_POINT('',(-0.293103448275862,0.,-0.0625));
#815=CARTESIAN_POINT('',(-0.258620689655172,0.,-0.0625));
#816=CARTESIAN_POINT('',(-0.224137931034483,0.,-0.0625));
#817=CARTESIAN_POINT('',(-0.189655172413793,0.,-0.0625));
#818=CARTESIAN_POINT('',(-0.155172413793103,0.,-0.0625));
#819=CARTESIAN_POINT('',(-0.120689655172414,0.,-0.0625));
#820=CARTESIAN_POINT('',(-0.0862068965517241,0.,-0.0625));
#821=CARTESIAN_POINT('',(-0.0517241379310345,0.,-0.0625));
#822=CARTESIAN_POINT('',(-0.0172413793103448,0.,-0.0625));
#823=CARTESIAN_POINT('',(0.0172413793103449,0.,-0.0625));
#824=CARTESIAN_POINT('',(0.0517241379310345,0.,-0.0625));
#825=CARTESIAN_POINT('',(0.0862068965517241,0.,-0.0625));
#826=CARTESIAN_POINT('',(0.120689655172414,0.,-0.0625));
#827=CARTESIAN_POINT('',(0.155172413793103,0.,-0.0625));
#828=CARTESIAN_POINT('',(0.189655172413793,0.,-0.0625));
#829=CARTESIAN_POINT('',(0.224137931034483,0.,-0.0625));
#830=CARTESIAN_POINT('',(0.258620689655172,0.,-0.0625));
#831=CARTESIAN_POINT('',(0.293103448275862,0.,-0.0625));
#832=CARTESIAN_POINT('',(0.327586206896552,0.,-0.0625));
#833=CARTESIAN_POINT('',(0.362068965517241,0.,-0.0625));
#834=CARTESIAN_POINT('',(0.396551724137931,0.,-0.0625));
#835=CARTESIAN_POINT('',(0.431034482758621,0.,-0.0625));
#836=CARTESIAN_POINT('',(0.46551724137931,0.,-0.0625));
#837=CARTESIAN_POINT('',(0.5,0.,-0.0625));
#838=CARTESIAN_POINT('',(0.,0.));
#839=CARTESIAN_POINT('',(1.00661945398015,0.));
#840=CARTESIAN_POINT('',(0.5,0.,-0.0625));
#841=CARTESIAN_POINT('',(0.5,0.,-0.0592105263157895));
#842=CARTESIAN_POINT('',(0.5,0.,-0.0559210526315789));
#843=CARTESIAN_POINT('',(0.5,0.,-0.0526315789473684));
#844=CARTESIAN_POINT('',(0.5,0.,-0.0493421052631579));
#845=CARTESIAN_POINT('',(0.5,0.,-0.0460526315789474));
#846=CARTESIAN_POINT('',(0.5,0.,-0.0427631578947368));
#847=CARTESIAN_POINT('',(0.5,0.,-0.0394736842105263));
#848=CARTESIAN_POINT('',(0.5,0.,-0.0361842105263158));
#849=CARTESIAN_POINT('',(0.5,0.,-0.0328947368421053));
#850=CARTESIAN_POINT('',(0.5,0.,-0.0296052631578947));
#851=CARTESIAN_POINT('',(0.5,0.,-0.0263157894736842));
#852=CARTESIAN_POINT('',(0.5,0.,-0.0230263157894737));
#853=CARTESIAN_POINT('',(0.5,0.,-0.0197368421052632));
#854=CARTESIAN_POINT('',(0.5,0.,-0.0164473684210526));
#855=CARTESIAN_POINT('',(0.5,0.,-0.0131578947368421));
#856=CARTESIAN_POINT('',(0.5,0.,-0.00986842105263158));
#857=CARTESIAN_POINT('',(0.5,0.,-0.00657894736842105));
#858=CARTESIAN_POINT('',(0.5,0.,-0.00328947368421053));
#859=CARTESIAN_POINT('',(0.5,0.,-0.00220765058929606));
#860=CARTESIAN_POINT('',(0.5,0.,-0.0016300016439671));
#861=CARTESIAN_POINT('',(0.5,0.,0.000727587208695671));
#862=CARTESIAN_POINT('',(0.5,0.,0.00666666666666667));
#863=CARTESIAN_POINT('',(0.5,0.,0.0133333333333333));
#864=CARTESIAN_POINT('',(0.5,0.,0.02));
#865=CARTESIAN_POINT('',(1.00661945398015,0.));
#866=CARTESIAN_POINT('',(1.00661945398015,0.0833057219413064));
#867=CARTESIAN_POINT('',(1.00661945398015,0.103305721941306));
#868=CARTESIAN_POINT('',(0.5,0.,0.02));
#869=CARTESIAN_POINT('',(0.46551724137931,0.00665873959571938,0.02));
#870=CARTESIAN_POINT('',(0.431034482758621,0.0128418549346017,0.02));
#871=CARTESIAN_POINT('',(0.396551724137931,0.0185493460166468,0.02));
#872=CARTESIAN_POINT('',(0.362068965517241,0.0237812128418549,0.02));
#873=CARTESIAN_POINT('',(0.327586206896552,0.0285374554102259,0.02));
#874=CARTESIAN_POINT('',(0.293103448275862,0.0328180737217598,0.02));
#875=CARTESIAN_POINT('',(0.258620689655172,0.0366230677764566,0.02));
#876=CARTESIAN_POINT('',(0.224137931034483,0.0399524375743163,0.02));
#877=CARTESIAN_POINT('',(0.189655172413793,0.0428061831153389,0.02));
#878=CARTESIAN_POINT('',(0.155172413793103,0.0451843043995244,0.02));
#879=CARTESIAN_POINT('',(0.120689655172414,0.0470868014268728,0.02));
#880=CARTESIAN_POINT('',(0.0862068965517241,0.0485136741973841,0.02));
#881=CARTESIAN_POINT('',(0.0517241379310345,0.0494649227110583,0.02));
#882=CARTESIAN_POINT('',(0.0172413793103449,0.0499405469678954,0.02));
#883=CARTESIAN_POINT('',(-0.0172413793103448,0.0499405469678954,0.02));
#884=CARTESIAN_POINT('',(-0.0517241379310345,0.0494649227110583,0.02));
#885=CARTESIAN_POINT('',(-0.0862068965517242,0.0485136741973841,0.02));
#886=CARTESIAN_POINT('',(-0.120689655172414,0.0470868014268728,0.02));
#887=CARTESIAN_POINT('',(-0.155172413793103,0.0451843043995244,0.02));
#888=CARTESIAN_POINT('',(-0.189655172413793,0.0428061831153389,0.02));
#889=CARTESIAN_POINT('',(-0.224137931034483,0.0399524375743163,0.02));
#890=CARTESIAN_POINT('',(-0.258620689655172,0.0366230677764566,0.02));
#891=CARTESIAN_POINT('',(-0.293103448275862,0.0328180737217598,0.02));
#892=CARTESIAN_POINT('',(-0.327586206896552,0.0285374554102259,0.02));
#893=CARTESIAN_POINT('',(-0.362068965517241,0.0237812128418549,0.02));
#894=CARTESIAN_POINT('',(-0.396551724137931,0.0185493460166468,0.02));
#895=CARTESIAN_POINT('',(-0.431034482758621,0.0128418549346017,0.02));
#896=CARTESIAN_POINT('',(-0.46551724137931,0.00665873959571938,0.02));
#897=CARTESIAN_POINT('',(-0.5,0.,0.02));
#898=CARTESIAN_POINT('',(1.00661945398015,0.103305721941306));
#899=CARTESIAN_POINT('',(0.,0.103305721941306));
#900=CARTESIAN_POINT('',(0.,0.,0.));
#901=(
GEOMETRIC_REPRESENTATION_CONTEXT(2)
PARAMETRIC_REPRESENTATION_CONTEXT()
REPRESENTATION_CONTEXT('pspace','')
);
ENDSEC;
END-ISO-10303-21;
